<svg width="86" height="95" viewBox="0 0 86 95" fill="none" xmlns="http://www.w3.org/2000/svg">
<path id="Vector" d="M0.0714111 52.5034V28.2369H9.60261V51.6349C9.60261 57.9316 12.8142 63.7837 18.1289 67.175L19.0613 67.7643V18.7246H28.6029L38.0408 28.2369V9.41918H9.60261V18.7246H0.0714111V0H85.5414V18.7246H76.0102V9.41918H47.572V28.2369L57.01 18.7246H66.6344V69.6461C72.4256 66.3788 76.0102 60.2476 76.0102 53.5994V28.2369H85.5414V54.5092C85.5414 64.342 80.2371 73.42 71.6487 78.2588L66.6344 81.0918L57.0929 86.4786V31.6799L47.572 41.2748V91.8447L42.6821 94.6054H42.6717L38.0408 91.6483V41.2748L28.6029 31.7626V85.6308L19.0613 79.5512L12.7002 75.4982C4.83701 70.4836 0.0714111 61.8192 0.0714111 52.5034Z" fill="url(#paint0_linear_1223_63)"/>
<defs>
<linearGradient id="paint0_linear_1223_63" x1="42.8064" y1="94.6054" x2="42.8064" y2="0" gradientUnits="userSpaceOnUse">
<stop stop-color="#01B65F"/>
<stop offset="1" stop-color="#51CDE2"/>
</linearGradient>
</defs>
</svg>
